<mxfile host="65bd71144e">
    <diagram id="W9GcdPS9CdAzZe7LTccp" name="Page-1">
        <mxGraphModel dx="7625" dy="5535" grid="0" gridSize="10" guides="1" tooltips="1" connect="1" arrows="1" fold="1" page="1" pageScale="1" pageWidth="1100" pageHeight="850" math="0" shadow="0">
            <root>
                <mxCell id="0"/>
                <mxCell id="1" parent="0"/>
                <mxCell id="20" value="" style="rounded=0;whiteSpace=wrap;html=1;strokeColor=#330000;fontSize=75;fontColor=#FFFF66;fillColor=#555582;movable=1;resizable=1;rotatable=1;deletable=1;editable=1;connectable=1;" vertex="1" parent="1">
                    <mxGeometry x="-1295" y="-927" width="4000" height="1792" as="geometry"/>
                </mxCell>
                <mxCell id="2" value="" style="ellipse;whiteSpace=wrap;html=1;aspect=fixed;fillColor=#330000;fontColor=#ffffff;strokeColor=#330000;movable=1;resizable=1;rotatable=1;deletable=1;editable=1;connectable=1;" vertex="1" parent="1">
                    <mxGeometry x="-1237" y="36" width="771" height="771" as="geometry"/>
                </mxCell>
                <mxCell id="3" value="" style="whiteSpace=wrap;html=1;aspect=fixed;movable=1;resizable=1;rotatable=1;deletable=1;editable=1;connectable=1;fillColor=#000000;" vertex="1" parent="1">
                    <mxGeometry x="-1144" y="205" width="225" height="225" as="geometry"/>
                </mxCell>
                <mxCell id="4" value="" style="whiteSpace=wrap;html=1;aspect=fixed;movable=1;resizable=1;rotatable=1;deletable=1;editable=1;connectable=1;fillColor=#000000;" vertex="1" parent="1">
                    <mxGeometry x="-802.5" y="207" width="225" height="225" as="geometry"/>
                </mxCell>
                <mxCell id="5" value="" style="whiteSpace=wrap;html=1;aspect=fixed;movable=1;resizable=1;rotatable=1;deletable=1;editable=1;connectable=1;fillColor=#000000;" vertex="1" parent="1">
                    <mxGeometry x="-967.5" y="518" width="225" height="225" as="geometry"/>
                </mxCell>
                <mxCell id="7" value="&lt;b style=&quot;font-size: 40px;&quot;&gt;&lt;font color=&quot;#ffffff&quot;&gt;Analyze Network&lt;br&gt;Data&lt;/font&gt;&lt;/b&gt;" style="text;html=1;strokeColor=none;fillColor=none;align=center;verticalAlign=middle;whiteSpace=wrap;rounded=0;movable=1;resizable=1;rotatable=1;deletable=1;editable=1;connectable=1;" vertex="1" parent="1">
                    <mxGeometry x="-1120.5" y="236.5" width="178" height="162" as="geometry"/>
                </mxCell>
                <mxCell id="8" value="&lt;b style=&quot;font-size: 40px;&quot;&gt;&lt;font color=&quot;#ffffff&quot;&gt;Analyze Disk&lt;br&gt;Data&lt;/font&gt;&lt;/b&gt;" style="text;html=1;strokeColor=none;fillColor=none;align=center;verticalAlign=middle;whiteSpace=wrap;rounded=0;movable=1;resizable=1;rotatable=1;deletable=1;editable=1;connectable=1;" vertex="1" parent="1">
                    <mxGeometry x="-776.5" y="238.5" width="178" height="162" as="geometry"/>
                </mxCell>
                <mxCell id="9" value="&lt;b style=&quot;font-size: 40px;&quot;&gt;&lt;font color=&quot;#ffffff&quot;&gt;Analyze&lt;br&gt;Memory&lt;br&gt;Data&lt;/font&gt;&lt;/b&gt;" style="text;html=1;strokeColor=none;fillColor=none;align=center;verticalAlign=middle;whiteSpace=wrap;rounded=0;movable=1;resizable=1;rotatable=1;deletable=1;editable=1;connectable=1;" vertex="1" parent="1">
                    <mxGeometry x="-946.5" y="555" width="178" height="162" as="geometry"/>
                </mxCell>
                <mxCell id="10" value="&lt;b&gt;&lt;font color=&quot;#ffff66&quot; style=&quot;font-size: 75px;&quot;&gt;DATABASE&lt;/font&gt;&lt;/b&gt;" style="image;html=1;image=img/lib/clip_art/computers/Database_128x128.png;fontSize=40;" vertex="1" parent="1">
                    <mxGeometry x="263" y="-899" width="814" height="725" as="geometry"/>
                </mxCell>
                <mxCell id="11" value="&lt;span style=&quot;font-size: 40px;&quot;&gt;&lt;b&gt;&lt;font color=&quot;#ffff66&quot;&gt;Kernel (Analyze Engine)&lt;/font&gt;&lt;/b&gt;&lt;/span&gt;" style="text;html=1;strokeColor=none;fillColor=none;align=center;verticalAlign=middle;whiteSpace=wrap;rounded=0;movable=1;resizable=1;rotatable=1;deletable=1;editable=1;connectable=1;" vertex="1" parent="1">
                    <mxGeometry x="-1094.5" y="417" width="500" height="107" as="geometry"/>
                </mxCell>
                <mxCell id="14" value="&lt;b&gt;&lt;font style=&quot;font-size: 100px;&quot;&gt;STORE&lt;br&gt;&lt;br&gt;&lt;/font&gt;&lt;/b&gt;" style="text;html=1;strokeColor=none;fillColor=none;align=center;verticalAlign=middle;whiteSpace=wrap;rounded=0;fontSize=40;fontColor=#FFFF66;rotation=-60;" vertex="1" parent="1">
                    <mxGeometry x="-860" y="-336" width="359" height="198" as="geometry"/>
                </mxCell>
                <mxCell id="15" value="&lt;b&gt;&lt;font style=&quot;font-size: 75px;&quot;&gt;RESULTS&lt;br&gt;&lt;/font&gt;&lt;/b&gt;" style="text;html=1;strokeColor=none;fillColor=none;align=center;verticalAlign=middle;whiteSpace=wrap;rounded=0;fontSize=40;rotation=-15;fontColor=#FFFF66;" vertex="1" parent="1">
                    <mxGeometry x="-353" y="-723" width="359" height="61" as="geometry"/>
                </mxCell>
                <mxCell id="17" value="" style="ellipse;whiteSpace=wrap;html=1;aspect=fixed;fillColor=#a0522d;fontColor=#ffffff;strokeColor=#6D1F00;movable=1;resizable=1;rotatable=1;deletable=1;editable=1;connectable=1;" vertex="1" parent="1">
                    <mxGeometry x="1706" y="9" width="820" height="820" as="geometry"/>
                </mxCell>
                <mxCell id="21" value="&lt;font style=&quot;font-size: 200px;&quot;&gt;SERVER-2&lt;/font&gt;" style="text;html=1;strokeColor=none;fillColor=none;align=center;verticalAlign=middle;whiteSpace=wrap;rounded=0;fontSize=75;fontColor=#FFFF66;" vertex="1" parent="1">
                    <mxGeometry x="103" y="-1434" width="1245" height="340" as="geometry"/>
                </mxCell>
                <mxCell id="24" value="" style="rounded=0;whiteSpace=wrap;html=1;fontSize=200;fillColor=#000000;" vertex="1" parent="1">
                    <mxGeometry x="1821" y="149" width="256" height="254" as="geometry"/>
                </mxCell>
                <mxCell id="26" value="" style="rounded=0;whiteSpace=wrap;html=1;fontSize=200;fillColor=#000000;" vertex="1" parent="1">
                    <mxGeometry x="1977" y="497.5" width="278" height="266" as="geometry"/>
                </mxCell>
                <mxCell id="27" value="" style="rounded=0;whiteSpace=wrap;html=1;fontSize=200;fillColor=#000000;" vertex="1" parent="1">
                    <mxGeometry x="2164" y="152" width="250" height="250" as="geometry"/>
                </mxCell>
                <mxCell id="33" value="&lt;font style=&quot;font-size: 100px;&quot;&gt;Results&lt;/font&gt;" style="text;html=1;strokeColor=none;fillColor=none;align=center;verticalAlign=middle;whiteSpace=wrap;rounded=0;fontSize=200;fontColor=#FFFF66;rotation=15;" vertex="1" parent="1">
                    <mxGeometry x="1183" y="-899" width="645" height="371" as="geometry"/>
                </mxCell>
                <mxCell id="34" value="&lt;font size=&quot;1&quot;&gt;&lt;b style=&quot;font-size: 100px;&quot;&gt;FETCH&lt;/b&gt;&lt;/font&gt;" style="text;html=1;strokeColor=none;fillColor=none;align=center;verticalAlign=middle;whiteSpace=wrap;rounded=0;fontSize=199;fontColor=#FFFF66;rotation=60;" vertex="1" parent="1">
                    <mxGeometry x="1866" y="-397" width="420" height="192" as="geometry"/>
                </mxCell>
                <mxCell id="35" value="&lt;font size=&quot;1&quot;&gt;&lt;b style=&quot;font-size: 75px;&quot;&gt;STORE&lt;/b&gt;&lt;/font&gt;" style="text;html=1;strokeColor=none;fillColor=none;align=center;verticalAlign=middle;whiteSpace=wrap;rounded=0;fontSize=199;fontColor=#FFFF66;rotation=10;" vertex="1" parent="1">
                    <mxGeometry x="1107" y="-411" width="420" height="192" as="geometry"/>
                </mxCell>
                <mxCell id="36" value="&lt;font size=&quot;1&quot;&gt;&lt;b style=&quot;font-size: 75px;&quot;&gt;DATA&lt;br&gt;&lt;/b&gt;&lt;/font&gt;" style="text;html=1;strokeColor=none;fillColor=none;align=center;verticalAlign=middle;whiteSpace=wrap;rounded=0;fontSize=199;fontColor=#FFFF66;rotation=40;" vertex="1" parent="1">
                    <mxGeometry x="1379" y="-303" width="420" height="152" as="geometry"/>
                </mxCell>
                <mxCell id="37" value="&lt;font size=&quot;1&quot;&gt;&lt;b style=&quot;font-size: 75px;&quot;&gt;RAW&lt;br&gt;&lt;/b&gt;&lt;/font&gt;" style="text;html=1;strokeColor=none;fillColor=none;align=center;verticalAlign=middle;whiteSpace=wrap;rounded=0;fontSize=199;fontColor=#FFFF66;rotation=55;" vertex="1" parent="1">
                    <mxGeometry x="1560" y="-117" width="420" height="192" as="geometry"/>
                </mxCell>
                <mxCell id="38" value="&lt;b&gt;&lt;font style=&quot;&quot;&gt;&lt;font style=&quot;font-size: 75px;&quot;&gt;RAW&lt;/font&gt;&lt;br&gt;&lt;/font&gt;&lt;/b&gt;" style="text;html=1;strokeColor=none;fillColor=none;align=center;verticalAlign=middle;whiteSpace=wrap;rounded=0;fontSize=40;fontColor=#FFFF66;rotation=-30;" vertex="1" parent="1">
                    <mxGeometry x="-364" y="-303" width="359" height="198" as="geometry"/>
                </mxCell>
                <mxCell id="39" value="&lt;b&gt;&lt;font style=&quot;&quot;&gt;&lt;font style=&quot;font-size: 75px;&quot;&gt;DATA&lt;/font&gt;&lt;br&gt;&lt;/font&gt;&lt;/b&gt;" style="text;html=1;strokeColor=none;fillColor=none;align=center;verticalAlign=middle;whiteSpace=wrap;rounded=0;fontSize=40;fontColor=#FFFF66;rotation=0;" vertex="1" parent="1">
                    <mxGeometry x="-92" y="-369" width="359" height="198" as="geometry"/>
                </mxCell>
                <mxCell id="40" value="&lt;b&gt;&lt;font style=&quot;&quot;&gt;&lt;font style=&quot;font-size: 75px;&quot;&gt;FETCH&lt;/font&gt;&lt;br&gt;&lt;/font&gt;&lt;/b&gt;" style="text;html=1;strokeColor=none;fillColor=none;align=center;verticalAlign=middle;whiteSpace=wrap;rounded=0;fontSize=40;fontColor=#FFFF66;rotation=-57;" vertex="1" parent="1">
                    <mxGeometry x="-553" y="-117" width="359" height="198" as="geometry"/>
                </mxCell>
                <mxCell id="41" value="&lt;span style=&quot;font-size: 100px;&quot;&gt;&lt;b&gt;RAW DATA&lt;/b&gt;&lt;/span&gt;" style="text;html=1;strokeColor=none;fillColor=none;align=center;verticalAlign=middle;whiteSpace=wrap;rounded=0;fontSize=199;fontColor=#FFFF66;rotation=0;" vertex="1" parent="1">
                    <mxGeometry x="70" y="218" width="1032" height="192" as="geometry"/>
                </mxCell>
                <mxCell id="42" value="&lt;b style=&quot;font-size: 50px;&quot;&gt;&lt;font color=&quot;#ffffff&quot;&gt;Network&lt;br&gt;Logs&lt;/font&gt;&lt;/b&gt;" style="text;html=1;strokeColor=none;fillColor=none;align=center;verticalAlign=middle;whiteSpace=wrap;rounded=0;fontSize=100;fontColor=#FFFF66;" vertex="1" parent="1">
                    <mxGeometry x="1819" y="179" width="266" height="174" as="geometry"/>
                </mxCell>
                <mxCell id="43" value="&lt;font color=&quot;#ffffff&quot; style=&quot;font-size: 50px;&quot;&gt;&lt;b style=&quot;&quot;&gt;Memory&lt;br&gt;&lt;/b&gt;Dumps&lt;/font&gt;" style="text;html=1;align=center;verticalAlign=middle;whiteSpace=wrap;rounded=0;fontSize=100;" vertex="1" parent="1">
                    <mxGeometry x="2170" y="175" width="238" height="192" as="geometry"/>
                </mxCell>
                <mxCell id="44" value="&lt;b style=&quot;font-size: 50px;&quot;&gt;&lt;font color=&quot;#ffffff&quot;&gt;&lt;span style=&quot;font-size: 50px;&quot;&gt;Disk&lt;br&gt;&lt;/span&gt;Images&lt;/font&gt;&lt;/b&gt;" style="text;html=1;strokeColor=none;fillColor=none;align=center;verticalAlign=middle;whiteSpace=wrap;rounded=0;fontSize=100;fontColor=#FFFF66;" vertex="1" parent="1">
                    <mxGeometry x="1971" y="500" width="298" height="222" as="geometry"/>
                </mxCell>
                <mxCell id="46" value="" style="endArrow=classic;html=1;strokeColor=#FF0000;strokeWidth=23;fontSize=50;fontColor=#FFFF66;fillColor=#FF9999;exitX=0;exitY=0.5;exitDx=0;exitDy=0;endSize=10;" edge="1" parent="1" source="17" target="2">
                    <mxGeometry width="50" height="50" relative="1" as="geometry">
                        <mxPoint x="38" y="320" as="sourcePoint"/>
                        <mxPoint x="88" y="270" as="targetPoint"/>
                        <Array as="points"/>
                    </mxGeometry>
                </mxCell>
                <mxCell id="47" value="&lt;b style=&quot;&quot;&gt;&lt;font color=&quot;#ffff66&quot; style=&quot;font-size: 40px;&quot;&gt;Data Collection &amp;amp; Event Correlation&lt;/font&gt;&lt;/b&gt;" style="text;html=1;strokeColor=none;fillColor=none;align=center;verticalAlign=middle;whiteSpace=wrap;rounded=0;movable=1;resizable=1;rotatable=1;deletable=1;editable=1;connectable=1;" vertex="1" parent="1">
                    <mxGeometry x="1889" y="398.5" width="500" height="107" as="geometry"/>
                </mxCell>
                <mxCell id="48" value="" style="rounded=0;whiteSpace=wrap;html=1;strokeColor=#330000;fontSize=75;fontColor=#FFFF66;fillColor=#555582;movable=1;resizable=1;rotatable=1;deletable=1;editable=1;connectable=1;" vertex="1" parent="1">
                    <mxGeometry x="6555" y="-931" width="2755" height="1792" as="geometry"/>
                </mxCell>
                <mxCell id="50" value="" style="shape=flexArrow;endArrow=classic;startArrow=none;html=1;strokeColor=#3333FF;strokeWidth=23;fontSize=50;fontColor=#FFFF66;endSize=10;fillColor=#3333FF;exitX=1;exitY=0.5;exitDx=0;exitDy=0;entryX=0;entryY=0.75;entryDx=0;entryDy=0;" edge="1" parent="1" source="49" target="48">
                    <mxGeometry width="100" height="100" relative="1" as="geometry">
                        <mxPoint x="4035" y="260" as="sourcePoint"/>
                        <mxPoint x="4135" y="160" as="targetPoint"/>
                    </mxGeometry>
                </mxCell>
                <mxCell id="51" value="" style="shape=flexArrow;endArrow=none;startArrow=classic;html=1;strokeColor=#3333FF;strokeWidth=23;fontSize=50;fontColor=#FFFF66;endSize=10;fillColor=#3333FF;entryX=0;entryY=0.5;entryDx=0;entryDy=0;startWidth=0;startSize=10;" edge="1" parent="1" source="20" target="49">
                    <mxGeometry width="100" height="100" relative="1" as="geometry">
                        <mxPoint x="2705" y="-31" as="sourcePoint"/>
                        <mxPoint x="6545" y="-45" as="targetPoint"/>
                    </mxGeometry>
                </mxCell>
                <mxCell id="49" value="" style="sketch=0;outlineConnect=0;fontColor=#232F3E;gradientColor=none;fillColor=#3333FF;strokeColor=none;dashed=0;verticalLabelPosition=bottom;verticalAlign=top;align=center;html=1;fontSize=12;fontStyle=0;aspect=fixed;pointerEvents=1;shape=mxgraph.aws4.endpoint;" vertex="1" parent="1">
                    <mxGeometry x="4150" y="199" width="918" height="918" as="geometry"/>
                </mxCell>
                <mxCell id="53" value="" style="endArrow=classic;html=1;strokeColor=#FF0000;strokeWidth=23;fontSize=40;fontColor=#FFFFFF;endSize=10;fillColor=#FF9999;entryX=1;entryY=0.75;entryDx=0;entryDy=0;" edge="1" parent="1" source="17" target="10">
                    <mxGeometry width="50" height="50" relative="1" as="geometry">
                        <mxPoint x="1551" y="-255" as="sourcePoint"/>
                        <mxPoint x="1601" y="-305" as="targetPoint"/>
                        <Array as="points">
                            <mxPoint x="1577" y="-288"/>
                        </Array>
                    </mxGeometry>
                </mxCell>
                <mxCell id="54" value="" style="endArrow=classic;html=1;strokeColor=#66CC00;strokeWidth=23;fontSize=40;fontColor=#FFFFFF;endSize=10;fillColor=#FF9999;exitX=1;exitY=0.25;exitDx=0;exitDy=0;entryX=0.5;entryY=0;entryDx=0;entryDy=0;" edge="1" parent="1" source="10" target="17">
                    <mxGeometry width="50" height="50" relative="1" as="geometry">
                        <mxPoint x="2151" y="-100.5" as="sourcePoint"/>
                        <mxPoint x="1112" y="-646" as="targetPoint"/>
                        <Array as="points">
                            <mxPoint x="1832" y="-508"/>
                        </Array>
                    </mxGeometry>
                </mxCell>
                <mxCell id="55" value="" style="shape=flexArrow;endArrow=classic;startArrow=none;html=1;strokeColor=#FF3399;strokeWidth=23;fontSize=50;fontColor=#FFFF66;endSize=10;fillColor=#FF3399;exitX=1;exitY=0.5;exitDx=0;exitDy=0;" edge="1" parent="1" source="57" target="48">
                    <mxGeometry width="100" height="100" relative="1" as="geometry">
                        <mxPoint x="4009" y="-1158" as="sourcePoint"/>
                        <mxPoint x="6529" y="-1453" as="targetPoint"/>
                    </mxGeometry>
                </mxCell>
                <mxCell id="56" value="" style="shape=flexArrow;endArrow=none;startArrow=classic;html=1;strokeColor=#FF3399;strokeWidth=23;fontSize=50;fontColor=#FFFF66;endSize=10;fillColor=#FF3399;entryX=0;entryY=0.5;entryDx=0;entryDy=0;startWidth=0;startSize=10;" edge="1" parent="1" target="57" source="20">
                    <mxGeometry width="100" height="100" relative="1" as="geometry">
                        <mxPoint x="2679" y="-1449" as="sourcePoint"/>
                        <mxPoint x="6519" y="-1463" as="targetPoint"/>
                    </mxGeometry>
                </mxCell>
                <mxCell id="57" value="" style="sketch=0;outlineConnect=0;fontColor=#232F3E;gradientColor=none;fillColor=#FF0080;strokeColor=none;dashed=0;verticalLabelPosition=bottom;verticalAlign=top;align=center;html=1;fontSize=12;fontStyle=0;aspect=fixed;pointerEvents=1;shape=mxgraph.aws4.endpoint;" vertex="1" parent="1">
                    <mxGeometry x="4157" y="-1118" width="918" height="918" as="geometry"/>
                </mxCell>
                <mxCell id="58" value="&lt;b&gt;&lt;font color=&quot;#ffff33&quot; style=&quot;font-size: 150px;&quot;&gt;DATABASE&lt;/font&gt;&lt;/b&gt;" style="text;html=1;strokeColor=none;fillColor=none;align=center;verticalAlign=middle;whiteSpace=wrap;rounded=0;fontSize=75;fontColor=#FFFFFF;rotation=-10;" vertex="1" parent="1">
                    <mxGeometry x="2543" y="-829" width="1950" height="370" as="geometry"/>
                </mxCell>
                <mxCell id="59" value="&lt;b&gt;&lt;font color=&quot;#ffff33&quot; style=&quot;font-size: 150px;&quot;&gt;Syncing&lt;/font&gt;&lt;/b&gt;" style="text;html=1;strokeColor=none;fillColor=none;align=center;verticalAlign=middle;whiteSpace=wrap;rounded=0;fontSize=75;fontColor=#FFFFFF;rotation=0;" vertex="1" parent="1">
                    <mxGeometry x="3658" y="-1419" width="1950" height="370" as="geometry"/>
                </mxCell>
                <mxCell id="60" value="&lt;b&gt;&lt;font color=&quot;#ffff33&quot; style=&quot;font-size: 150px;&quot;&gt;gRPC&lt;br&gt;&lt;/font&gt;&lt;/b&gt;" style="text;html=1;strokeColor=none;fillColor=none;align=center;verticalAlign=middle;whiteSpace=wrap;rounded=0;fontSize=75;fontColor=#FFFFFF;rotation=15;" vertex="1" parent="1">
                    <mxGeometry x="4803" y="-824" width="1950" height="370" as="geometry"/>
                </mxCell>
                <mxCell id="61" value="&lt;b&gt;&lt;font color=&quot;#ffff33&quot; style=&quot;font-size: 150px;&quot;&gt;Application&lt;/font&gt;&lt;/b&gt;" style="text;html=1;strokeColor=none;fillColor=none;align=center;verticalAlign=middle;whiteSpace=wrap;rounded=0;fontSize=75;fontColor=#FFFFFF;rotation=15;" vertex="1" parent="1">
                    <mxGeometry x="2403" y="445.5" width="1950" height="370" as="geometry"/>
                </mxCell>
                <mxCell id="62" value="&lt;b&gt;&lt;font color=&quot;#ffff33&quot; style=&quot;font-size: 150px;&quot;&gt;Only&lt;/font&gt;&lt;/b&gt;" style="text;html=1;strokeColor=none;fillColor=none;align=center;verticalAlign=middle;whiteSpace=wrap;rounded=0;fontSize=75;fontColor=#FFFFFF;rotation=0;" vertex="1" parent="1">
                    <mxGeometry x="3653" y="1026" width="1950" height="370" as="geometry"/>
                </mxCell>
                <mxCell id="63" value="&lt;b&gt;&lt;font color=&quot;#ffff33&quot; style=&quot;font-size: 150px;&quot;&gt;gRPC&lt;br&gt;&lt;/font&gt;&lt;/b&gt;" style="text;html=1;strokeColor=none;fillColor=none;align=center;verticalAlign=middle;whiteSpace=wrap;rounded=0;fontSize=75;fontColor=#FFFFFF;rotation=-10;" vertex="1" parent="1">
                    <mxGeometry x="4848" y="461" width="1950" height="370" as="geometry"/>
                </mxCell>
                <mxCell id="64" value="" style="endArrow=classic;html=1;strokeColor=#33FF33;strokeWidth=23;fontSize=150;fontColor=#FFFF33;endSize=10;fillColor=#FF3399;exitX=0.5;exitY=0;exitDx=0;exitDy=0;entryX=0;entryY=0.25;entryDx=0;entryDy=0;" edge="1" parent="1" source="2" target="10">
                    <mxGeometry width="50" height="50" relative="1" as="geometry">
                        <mxPoint x="405" y="-426" as="sourcePoint"/>
                        <mxPoint x="455" y="-476" as="targetPoint"/>
                        <Array as="points">
                            <mxPoint x="-452" y="-568"/>
                        </Array>
                    </mxGeometry>
                </mxCell>
                <mxCell id="65" value="" style="endArrow=classic;html=1;strokeColor=#CCCC00;strokeWidth=23;fontSize=150;fontColor=#FFFF33;endSize=10;fillColor=#FF3399;exitX=0;exitY=0.75;exitDx=0;exitDy=0;entryX=1;entryY=0;entryDx=0;entryDy=0;" edge="1" parent="1" source="10" target="2">
                    <mxGeometry width="50" height="50" relative="1" as="geometry">
                        <mxPoint x="-712" y="30.749999999999545" as="sourcePoint"/>
                        <mxPoint x="402.5" y="-722.9999999999995" as="targetPoint"/>
                        <Array as="points">
                            <mxPoint x="-246" y="-288"/>
                        </Array>
                    </mxGeometry>
                </mxCell>
                <mxCell id="67" value="" style="aspect=fixed;html=1;points=[];align=center;image;fontSize=12;image=img/lib/azure2/identity/Users.svg;strokeColor=#330000;fontColor=#FFFF33;fillColor=#FF0080;" vertex="1" parent="1">
                    <mxGeometry x="9969" y="-330" width="528.46" height="578" as="geometry"/>
                </mxCell>
                <mxCell id="68" value="&lt;b&gt;&lt;font style=&quot;font-size: 100px;&quot;&gt;USER&lt;/font&gt;&lt;/b&gt;" style="text;html=1;strokeColor=none;fillColor=none;align=center;verticalAlign=middle;whiteSpace=wrap;rounded=0;fontSize=75;fontColor=#FFFF33;" vertex="1" parent="1">
                    <mxGeometry x="9891.23" y="218" width="684" height="298" as="geometry"/>
                </mxCell>
                <mxCell id="76" value="&lt;b&gt;&lt;font style=&quot;font-size: 200px;&quot;&gt;SERVER-1&lt;/font&gt;&lt;/b&gt;" style="text;html=1;strokeColor=none;fillColor=none;align=center;verticalAlign=middle;whiteSpace=wrap;rounded=0;fontSize=100;fontColor=#FFFF33;" vertex="1" parent="1">
                    <mxGeometry x="8095" y="-1490" width="1105" height="690" as="geometry"/>
                </mxCell>
                <mxCell id="77" value="&lt;b&gt;&lt;font color=&quot;#ffff66&quot; style=&quot;font-size: 75px;&quot;&gt;DATABASE&lt;/font&gt;&lt;/b&gt;" style="image;html=1;image=img/lib/clip_art/computers/Database_128x128.png;fontSize=40;" vertex="1" parent="1">
                    <mxGeometry x="6488" y="-899" width="814" height="725" as="geometry"/>
                </mxCell>
                <mxCell id="78" value="&lt;font style=&quot;font-size: 150px;&quot;&gt;&lt;b&gt;REDIS&lt;/b&gt;&lt;/font&gt;" style="outlineConnect=0;dashed=0;verticalLabelPosition=bottom;verticalAlign=top;align=center;html=1;shape=mxgraph.aws3.redis;fillColor=#2E73B8;gradientColor=none;strokeColor=#330000;fontSize=200;fontColor=#FFFF33;" vertex="1" parent="1">
                    <mxGeometry x="6660" y="93" width="435" height="483" as="geometry"/>
                </mxCell>
                <mxCell id="81" value="SERVER" style="image;html=1;image=img/lib/clip_art/computers/Server_128x128.png;strokeColor=#330000;fontSize=150;fontColor=#FFFF33;fillColor=#FF8000;" vertex="1" parent="1">
                    <mxGeometry x="7825" y="-330" width="1360" height="490" as="geometry"/>
                </mxCell>
                <mxCell id="87" value="" style="shape=flexArrow;endArrow=classic;startArrow=classic;html=1;strokeColor=#66CC00;strokeWidth=23;fontSize=150;fontColor=#FFFF33;endSize=10;fillColor=#66CC00;" edge="1" parent="1" source="48" target="67">
                    <mxGeometry width="100" height="100" relative="1" as="geometry">
                        <mxPoint x="9080" y="265" as="sourcePoint"/>
                        <mxPoint x="9180" y="165" as="targetPoint"/>
                    </mxGeometry>
                </mxCell>
                <mxCell id="89" value="" style="shape=flexArrow;endArrow=classic;startArrow=classic;html=1;strokeColor=#66CC00;strokeWidth=23;fontSize=150;fontColor=#FFFF33;endSize=10;fillColor=#66CC00;entryX=0.5;entryY=1;entryDx=0;entryDy=0;" edge="1" parent="1" source="78" target="81">
                    <mxGeometry width="100" height="100" relative="1" as="geometry">
                        <mxPoint x="7302.000000000002" y="509" as="sourcePoint"/>
                        <mxPoint x="9265" y="791.9999999999991" as="targetPoint"/>
                        <Array as="points">
                            <mxPoint x="8320" y="355"/>
                        </Array>
                    </mxGeometry>
                </mxCell>
                <mxCell id="88" value="" style="shape=flexArrow;endArrow=classic;startArrow=classic;html=1;strokeColor=#66CC00;strokeWidth=23;fontSize=150;fontColor=#FFFF33;endSize=10;fillColor=#66CC00;exitX=1;exitY=0.5;exitDx=0;exitDy=0;entryX=0.5;entryY=0;entryDx=0;entryDy=0;" edge="1" parent="1" source="77" target="81">
                    <mxGeometry width="100" height="100" relative="1" as="geometry">
                        <mxPoint x="9080" y="265" as="sourcePoint"/>
                        <mxPoint x="9180" y="165" as="targetPoint"/>
                        <Array as="points">
                            <mxPoint x="8335" y="-536"/>
                        </Array>
                    </mxGeometry>
                </mxCell>
                <mxCell id="91" value="Fast Caching" style="text;html=1;strokeColor=none;fillColor=none;align=center;verticalAlign=middle;whiteSpace=wrap;rounded=0;fontSize=150;fontColor=#FFFF33;" vertex="1" parent="1">
                    <mxGeometry x="7220" y="290" width="1045" height="315" as="geometry"/>
                </mxCell>
                <mxCell id="92" value="Registration, Login, RBAC" style="text;html=1;strokeColor=none;fillColor=none;align=center;verticalAlign=middle;whiteSpace=wrap;rounded=0;fontSize=150;fontColor=#FFFF33;" vertex="1" parent="1">
                    <mxGeometry x="7345" y="-805" width="1930" height="285" as="geometry"/>
                </mxCell>
            </root>
        </mxGraphModel>
    </diagram>
</mxfile>